<svg width="18" height="11" viewBox="0 0 18 11" fill="none" xmlns="http://www.w3.org/2000/svg">
<path d="M0.864163 1.62352H17.1359C17.5025 1.62352 17.8 1.34945 17.8 1.01176C17.8 0.674065 17.5025 0.399994 17.1359 0.399994H0.864163C0.497552 0.399994 0.200012 0.674065 0.200012 1.01176C0.200012 1.34945 0.497552 1.62352 0.864163 1.62352Z" fill="white" fill-opacity="0.6"/>
<path d="M0.864163 6.21176H17.1359C17.5025 6.21176 17.8 5.93769 17.8 5.6C17.8 5.2623 17.5025 4.98823 17.1359 4.98823H0.864163C0.497552 4.98823 0.200012 5.2623 0.200012 5.6C0.200012 5.93769 0.497552 6.21176 0.864163 6.21176Z" fill="white" fill-opacity="0.6"/>
<path d="M0.864163 10.8H17.1359C17.5025 10.8 17.8 10.5259 17.8 10.1882C17.8 9.85051 17.5025 9.57644 17.1359 9.57644H0.864163C0.497552 9.57644 0.200012 9.85051 0.200012 10.1882C0.200012 10.5259 0.497552 10.8 0.864163 10.8Z" fill="white" fill-opacity="0.6"/>
</svg>
